<?xml version="1.0" encoding="utf-8"?>
<!-- Generator: Adobe Illustrator 25.0.0, SVG Export Plug-In . SVG Version: 6.00 Build 0)  -->
<svg version="1.1" id="icons" xmlns="http://www.w3.org/2000/svg" xmlns:xlink="http://www.w3.org/1999/xlink" x="0px" y="0px"
	 viewBox="0 0 494.7 159.6" style="enable-background:new 0 0 494.7 159.6;" xml:space="preserve">
<style type="text/css">
	.st0{fill:#7F3F98;}
	.st1{fill:none;stroke:#7F3F98;stroke-linecap:round;stroke-miterlimit:10;stroke-dasharray:2.025,2.025;}
	.st2{fill:#FFFFFF;}
</style>
<g id="dot_1_">
	<path class="st0" d="M154.3,82.9c0-5.5,4.5-9.9,10.1-9.9c5.6,0,10.1,4.5,10.1,9.9c0,5.5-4.5,9.9-10.1,9.9
		C158.8,92.8,154.3,88.3,154.3,82.9"/>
	<path id="dot-ring_1_" class="st0" d="M164.4,70.4c-7,0-12.6,5.6-12.6,12.4s5.7,12.4,12.6,12.4c7,0,12.6-5.6,12.6-12.4
		S171.3,70.4,164.4,70.4 M164.4,95.8c-7.2,0-13.1-5.8-13.1-12.9c0-7.1,5.9-12.9,13.1-12.9c7.2,0,13.1,5.8,13.1,12.9
		C177.5,90,171.6,95.8,164.4,95.8"/>
</g>
<g id="dot">
	<path class="st0" d="M320.9,82.9c0-5.5,4.5-9.9,10.1-9.9c5.6,0,10.1,4.5,10.1,9.9c0,5.5-4.5,9.9-10.1,9.9
		C325.4,92.8,320.9,88.3,320.9,82.9"/>
	<path id="dot-ring" class="st0" d="M331,70.4c-7,0-12.6,5.6-12.6,12.4S324,95.3,331,95.3c7,0,12.6-5.6,12.6-12.4
		S337.9,70.4,331,70.4 M331,95.8c-7.2,0-13.1-5.8-13.1-12.9c0-7.1,5.9-12.9,13.1-12.9c7.2,0,13.1,5.8,13.1,12.9
		C344.1,90,338.2,95.8,331,95.8"/>
</g>
<g id="service">
	<path class="st0" d="M347.1,79.8c0-36.2,29.8-65.5,66.5-65.5c36.8,0,66.6,29.3,66.6,65.5c0,36.2-29.8,65.5-66.6,65.5
		C376.9,145.3,347.1,116,347.1,79.8"/>
	<path class="st1" d="M333.1,76.8c1.6-41.7,35.9-75.2,78.5-76.3 M494.2,77.8c-1.1-41.9-35.1-75.7-77.5-77.2 M415.7,159.1
		c42.5-1,76.9-34.5,78.5-76.2 M333.1,81.8c1.1,41.9,35.1,75.7,77.5,77.2 M333.1,79.8c0,0.3,0,0.7,0,1 M412.6,159.1c0.3,0,0.7,0,1,0
		c0.3,0,0.7,0,1,0 M494.2,80.8c0-0.3,0-0.7,0-1c0-0.3,0-0.7,0-1 M414.7,0.5c-0.3,0-0.7,0-1,0c-0.3,0-0.7,0-1,0 M333.1,78.8
		c0,0.3,0,0.7,0,1"/>
	<path class="st2" d="M384.4,104.7h2c0,0.9,0.5,1.5,1.4,1.5c0.7,0,1.1-0.3,1.1-0.9c0-0.5-0.3-0.8-1-1.1l-1.5-0.6
		c-1.1-0.4-1.7-1.2-1.7-2.3c0-1.5,1.2-2.5,3-2.5c1.9,0,3.1,1.1,3.1,2.7h-2c0-0.8-0.4-1.2-1.2-1.2c-0.6,0-1,0.3-1,0.8
		c0,0.5,0.3,0.8,1.2,1.1l1.4,0.6c1.2,0.5,1.7,1.3,1.7,2.4c0,1.6-1.2,2.6-3.1,2.6C385.7,107.7,384.4,106.6,384.4,104.7z M391.9,99
		h5.2v1.6h-3.2v1.9h3.2v1.5h-3.2v1.9h3.2v1.6h-5.2V99z M403.6,104.8l1.5,2.7h-2.2l-1.3-2.4h-1v2.4h-2V99h3.6c1.8,0,3,1.3,3,3.1
		C405.2,103.3,404.6,104.3,403.6,104.8z M400.5,103.5h1.3c0.8,0,1.4-0.6,1.4-1.5c0-0.8-0.6-1.5-1.4-1.5h-1.3V103.5z M405,99h2.1
		l1.8,6l1.8-6h2.1l-2.9,8.5h-2L405,99z M413.4,99h2v8.5h-2V99z M416.5,103.2c0-2.6,1.8-4.5,4.6-4.5c2.5,0,4.1,1.3,4.3,3.3h-2.1
		c-0.2-1-1-1.6-2.2-1.6c-1.6,0-2.5,1.1-2.5,2.7s0.9,2.7,2.5,2.7c1.2,0,2-0.6,2.2-1.6h2.1c-0.2,2-1.8,3.3-4.3,3.3
		C418.2,107.7,416.5,105.8,416.5,103.2z M426.4,99h5.2v1.6h-3.2v1.9h3.2v1.5h-3.2v1.9h3.2v1.6h-5.2V99z M442.5,104.7h-0.5
		c0,1.9-1.3,3-3.3,3c-1.9,0-3.3-1-3.3-2.6c0-1.1,0.8-1.9,1.6-2.1c-0.8-0.2-1.5-0.9-1.5-1.9c0-1.5,1.3-2.4,3.1-2.4
		c2.2,0,3.1,1.1,3.1,2.7h-2c0-0.7-0.3-1.3-1.1-1.3c-0.6,0-1.1,0.4-1.1,1c0,0.6,0.3,1.1,1.1,1.1h0.3v1.5h-0.2c-0.9,0-1.3,0.5-1.3,1.2
		c0,0.6,0.4,1.2,1.2,1.2c0.7,0,1.3-0.4,1.3-1.5h-0.6v-1.5h3.1V104.7z M389.4,119.8v-5.6h2v5.5c0,1,0.6,1.5,1.5,1.5
		c0.9,0,1.5-0.5,1.5-1.5v-5.5h2v5.6c0,2-1.3,3.1-3.4,3.1S389.4,121.7,389.4,119.8z M399.1,115.9h-2.3v-1.7h6.6v1.7h-2.3v6.8h-2
		V115.9z M404.2,114.1h2v8.5h-2V114.1z M407.7,114.1h2v6.8h3.2v1.7h-5.1V114.1z M414,114.1h2v8.5h-2V114.1z M419.1,115.9h-2.3v-1.7
		h6.6v1.7H421v6.8h-2V115.9z M424.2,114.1h2v8.5h-2V114.1z M427.7,114.1h5.2v1.6h-3.2v1.9h3.2v1.5h-3.2v1.9h3.2v1.6h-5.2V114.1z
		 M433.8,119.9h2c0,0.9,0.5,1.5,1.4,1.5c0.7,0,1.1-0.3,1.1-0.9c0-0.5-0.3-0.8-1-1.1l-1.5-0.6c-1.1-0.4-1.7-1.2-1.7-2.3
		c0-1.5,1.2-2.5,3-2.5c1.9,0,3.1,1.1,3.1,2.7h-2c0-0.8-0.4-1.2-1.2-1.2c-0.6,0-1,0.3-1,0.8c0,0.5,0.3,0.8,1.2,1.1l1.4,0.6
		c1.2,0.5,1.7,1.3,1.7,2.4c0,1.6-1.2,2.6-3.1,2.6C435,122.9,433.8,121.8,433.8,119.9z"/>
	<path class="st2" d="M414.7,72v1.9h-22.8v-5.3c0-0.8,0.4-1.6,1.1-2.1l0.2-0.1c5.4,3.8,12.7,4.2,18.5,0.9l0.4,0.4
		c0,1.2,0.6,2.5,1.5,3.4L414.7,72z M419.4,53.6c3.1-0.5,5.2-3.2,4.7-6.1c-0.5-2.9-3.5-4.8-6.6-4.4c-0.9,0.1-1.7,0.5-2.4,0.9
		C417.7,46.6,419.3,50,419.4,53.6 M428.8,58.2c-1.6-1.2-3.5-2.1-5.6-2.5c-1.2-0.4-2.5-0.5-3.7-0.6c-0.1,2.5-1,5-2.4,7.2l0.4,0.4
		c1.3,0,2.7,0.5,3.6,1.4l1.7,1.6h7.2v-5.3C429.9,59.5,429.5,58.7,428.8,58.2 M403.2,43.6c-2.8,0-5.4,0.9-7.5,2.6
		c-4.8,3.8-5.4,10.6-1.3,15.1c1.1-0.6,2.2-1,3.4-1.3c1.7-0.5,3.5-0.8,5.3-0.8c1.8,0,3.5,0.3,5.3,0.8c1.3,0.3,2.5,0.7,3.7,1.2
		c1.8-1.9,2.7-4.4,2.7-6.9C414.7,48.4,409.6,43.6,403.2,43.6 M425.7,70.9c0.1,0.1,0.1,0.1,0.2,0.2c1.3,1.2,1.2,3.2-0.1,4.4
		c-1.3,1.2-3.5,1.1-4.8-0.1l-6-5.6c-0.8-0.8-1.1-1.8-0.9-2.8l-2.2-2c-2.6,1.8-5.7,2.8-8.9,2.8c-8-0.1-14.4-6.1-14.4-13.6
		c0-7.4,6.4-13.5,14.4-13.4c8,0.1,14.5,6.1,14.4,13.6c0,3-1,5.8-3,8.2l2.2,1.9c1.1-0.2,2.2,0.1,3,0.8L425.7,70.9 M409.4,52
		c0-3.3-2.9-6-6.4-6s-6.4,2.7-6.4,6c0,3.3,2.9,6,6.4,6C406.6,57.9,409.4,55.3,409.4,52 M386.8,55.1c-1.1,0.1-2.3,0.3-3.4,0.6
		c-2,0.5-3.9,1.4-5.6,2.5c-0.8,0.5-1.1,1.3-1.1,2.1v5.3h13.7c0.3-0.4,0.6-0.6,1-0.9C388.6,62.1,387,58.7,386.8,55.1 M386.8,53.5
		c0.2-3.6,1.8-7,4.4-9.6c-2.6-1.7-6.1-1-7.9,1.5c-1.8,2.5-1.1,5.7,1.6,7.4C385.5,53.1,386.1,53.3,386.8,53.5 M452.9,69.6h-8.4
		l5.2-16.1h-12.4l-4.1,22h8.4l-5.4,18.2L452.9,69.6z"/>
</g>
<g id="manufact">
	<path class="st0" d="M180.5,79.8c0-36.2,29.8-65.5,66.5-65.5c36.8,0,66.6,29.3,66.6,65.5c0,36.2-29.8,65.5-66.6,65.5
		C210.3,145.3,180.5,116,180.5,79.8"/>
	<path id="icon-ring" class="st1" d="M166.5,76.8C168.1,35,202.5,1.6,245,0.5 M327.6,77.8c-1.1-41.9-35.1-75.7-77.5-77.2
		 M249.1,159.1c42.5-1,76.9-34.5,78.5-76.2 M166.5,81.8c1.1,41.9,35.1,75.7,77.5,77.2 M166.5,79.8c0,0.3,0,0.7,0,1 M246,159.1
		c0.3,0,0.7,0,1,0c0.3,0,0.7,0,1,0 M327.6,80.8c0-0.3,0-0.7,0-1c0-0.3,0-0.7,0-1 M248.1,0.5c-0.3,0-0.7,0-1,0c-0.3,0-0.7,0-1,0
		 M166.5,78.8c0,0.3,0,0.7,0,1"/>
	<path class="st2" d="M197.1,89.7h2.3l2.3,6l2.3-6h2.2v8.5h-1.9v-5.5l-1.9,5.5h-1.5l-1.9-5.6v5.6h-1.9V89.7z M212.4,97.2h-3l-0.3,1
		H207l2.9-8.5h2l2.9,8.5h-2.1L212.4,97.2z M211.9,95.7l-1.1-3.8l-1.1,3.8H211.9z M215.6,89.7h2l3,5.5v-5.5h1.9v8.5h-2l-3-5.5v5.5
		h-1.9V89.7z M223.8,95.4v-5.6h2v5.5c0,1,0.6,1.5,1.5,1.5c0.9,0,1.5-0.5,1.5-1.5v-5.5h2v5.6c0,2-1.3,3.1-3.4,3.1
		C225.1,98.5,223.8,97.3,223.8,95.4z M232,89.7h5.2v1.7h-3.2v2.3h3.2v1.6h-3.2v2.9h-2V89.7z M242.4,97.2h-3l-0.3,1H237l2.9-8.5h2
		l2.9,8.5h-2.1L242.4,97.2z M241.9,95.7l-1.1-3.8l-1.1,3.8H241.9z M244.6,94c0-2.6,1.8-4.5,4.6-4.5c2.5,0,4.1,1.3,4.3,3.3h-2.1
		c-0.2-1-1-1.6-2.2-1.6c-1.6,0-2.5,1.1-2.5,2.7s0.9,2.7,2.5,2.7c1.2,0,2-0.6,2.2-1.6h2.1c-0.2,2-1.8,3.3-4.3,3.3
		C246.4,98.5,244.6,96.6,244.6,94z M255.7,91.5h-2.3v-1.7h6.6v1.7h-2.3v6.8h-2V91.5z M260.6,95.4v-5.6h2v5.5c0,1,0.6,1.5,1.5,1.5
		c0.9,0,1.5-0.5,1.5-1.5v-5.5h2v5.6c0,2-1.3,3.1-3.4,3.1S260.6,97.3,260.6,95.4z M273.9,95.5l1.5,2.7h-2.2l-1.3-2.4h-1v2.4h-2v-8.5
		h3.6c1.8,0,3,1.3,3,3.1C275.5,94,274.9,95.1,273.9,95.5z M270.8,94.3h1.3c0.8,0,1.4-0.6,1.4-1.5s-0.6-1.5-1.4-1.5h-1.3V94.3z
		 M276.6,89.7h2v8.5h-2V89.7z M280.1,89.7h2l3,5.5v-5.5h1.9v8.5h-2l-3-5.5v5.5h-1.9V89.7z M297.6,95.3h-0.8c-0.4,2-1.9,3.2-4.3,3.2
		c-2.7,0-4.5-1.9-4.5-4.5c0-2.5,1.7-4.5,4.6-4.5c2.3,0,3.9,1.2,4,2.9h-2.1c-0.2-0.7-0.8-1.2-1.9-1.2c-1.7,0-2.6,1.2-2.6,2.8
		c0,1.6,1,2.8,2.5,2.8c1.2,0,1.9-0.5,2.2-1.5h-1.5v-1.5h4.3V95.3z M202.6,110.6H202c0,1.9-1.3,3-3.3,3c-1.9,0-3.3-1-3.3-2.6
		c0-1.1,0.8-1.9,1.6-2.1c-0.8-0.2-1.5-0.9-1.5-1.9c0-1.5,1.3-2.4,3.1-2.4c2.1,0,3.1,1.1,3.1,2.7h-2c0-0.7-0.3-1.3-1.1-1.3
		c-0.6,0-1.1,0.4-1.1,1c0,0.6,0.3,1.1,1.1,1.1h0.3v1.5h-0.2c-0.9,0-1.3,0.5-1.3,1.2c0,0.6,0.4,1.2,1.2,1.2c0.7,0,1.3-0.4,1.3-1.5
		h-0.6v-1.5h3.1V110.6z M205.7,109.2c0-2.6,1.8-4.5,4.6-4.5c2.5,0,4.1,1.3,4.3,3.3h-2.1c-0.2-1-1-1.6-2.2-1.6
		c-1.6,0-2.5,1.1-2.5,2.7s0.9,2.7,2.5,2.7c1.2,0,2-0.6,2.2-1.6h2.1c-0.2,2-1.8,3.3-4.3,3.3C207.5,113.7,205.7,111.8,205.7,109.2z
		 M215.1,109.2c0-2.4,1.7-4.5,4.5-4.5c2.9,0,4.5,2.1,4.5,4.5s-1.7,4.5-4.5,4.5C216.8,113.7,215.1,111.6,215.1,109.2z M222.1,109.2
		c0-1.5-0.9-2.7-2.5-2.7c-1.6,0-2.5,1.3-2.5,2.7c0,1.5,0.9,2.7,2.5,2.7C221.2,111.9,222.1,110.6,222.1,109.2z M225.2,104.9h2l3,5.5
		v-5.5h1.9v8.5h-2l-3-5.5v5.5h-1.9V104.9z M233,110.6h2c0,0.9,0.5,1.5,1.4,1.5c0.7,0,1.1-0.3,1.1-0.9c0-0.5-0.3-0.8-1-1.1l-1.5-0.6
		c-1.1-0.4-1.7-1.2-1.7-2.3c0-1.5,1.2-2.5,3-2.5c1.9,0,3.1,1.1,3.1,2.7h-2c0-0.8-0.4-1.2-1.2-1.2c-0.6,0-1,0.3-1,0.8
		c0,0.5,0.3,0.8,1.2,1.1l1.4,0.6c1.2,0.5,1.7,1.3,1.7,2.4c0,1.6-1.2,2.6-3.1,2.6C234.3,113.7,233,112.5,233,110.6z M241.6,106.7
		h-2.3v-1.7h6.6v1.7h-2.3v6.8h-2V106.7z M251.8,110.7l1.5,2.7h-2.2l-1.3-2.4h-1v2.4h-2v-8.5h3.6c1.8,0,3,1.3,3,3.1
		C253.4,109.2,252.8,110.2,251.8,110.7z M248.7,109.5h1.3c0.8,0,1.4-0.6,1.4-1.5s-0.6-1.5-1.4-1.5h-1.3V109.5z M254.3,110.5v-5.6h2
		v5.5c0,1,0.6,1.5,1.5,1.5c0.9,0,1.5-0.5,1.5-1.5v-5.5h2v5.6c0,2-1.3,3.1-3.4,3.1S254.3,112.5,254.3,110.5z M262,109.2
		c0-2.6,1.8-4.5,4.6-4.5c2.5,0,4.1,1.3,4.3,3.3h-2.1c-0.2-1-1-1.6-2.2-1.6c-1.6,0-2.5,1.1-2.5,2.7s0.9,2.7,2.5,2.7
		c1.2,0,2-0.6,2.2-1.6h2.1c-0.2,2-1.8,3.3-4.3,3.3C263.7,113.7,262,111.8,262,109.2z M273.1,106.7h-2.3v-1.7h6.6v1.7H275v6.8h-2
		V106.7z M278.2,104.9h2v8.5h-2V104.9z M281.2,109.2c0-2.4,1.7-4.5,4.5-4.5c2.9,0,4.5,2.1,4.5,4.5s-1.7,4.5-4.5,4.5
		C282.9,113.7,281.2,111.6,281.2,109.2z M288.2,109.2c0-1.5-0.9-2.7-2.5-2.7c-1.6,0-2.5,1.3-2.5,2.7c0,1.5,0.9,2.7,2.5,2.7
		C287.3,111.9,288.2,110.6,288.2,109.2z M291.3,104.9h2l3,5.5v-5.5h1.9v8.5h-2l-3-5.5v5.5h-1.9V104.9z"/>
	<path class="st2" d="M251.6,41.5c-0.3-0.9-0.6-1.7-1-2.5l1-3l-2.3-2.3l-3,1c-0.8-0.4-1.6-0.8-2.5-1l-1.4-2.8h-3.2l-1.4,2.8
		c-0.9,0.3-1.7,0.6-2.5,1l-3-1L230,36l1,3c-0.4,0.8-0.8,1.6-1,2.5l-2.8,1.4V46l2.8,1.4c0.3,0.9,0.6,1.7,1,2.5l-1,3l2.2,2.2l3-1
		c0.8,0.4,1.6,0.8,2.5,1l1.4,2.8h3.2l1.4-2.8c0.9-0.3,1.7-0.6,2.5-1l3,1l2.3-2.2l-1-3c0.4-0.8,0.8-1.6,1.1-2.5l2.8-1.4v-3.2
		L251.6,41.5z M240.8,49.2c-2.7,0-4.8-2.1-4.8-4.7c0-2.6,2.2-4.7,4.8-4.7c2.7,0,4.8,2.1,4.8,4.7C245.6,47,243.4,49.2,240.8,49.2
		 M236.1,61.9l1-3l-2.3-2.3l-3,1c-0.8-0.4-1.7-0.8-2.5-1l-1.4-2.8h-3.2l-1.4,2.8c-0.9,0.3-1.7,0.6-2.5,1l-3-1l-2.2,2.2l1,3
		c-0.4,0.8-0.8,1.6-1,2.5l-2.8,1.4v3.2l2.8,1.4c0.3,0.9,0.6,1.7,1,2.5l-1,3l2.2,2.2l3-0.9c0.8,0.4,1.6,0.8,2.5,1l1.4,2.8h3.2
		l1.4-2.8c0.9-0.3,1.7-0.6,2.5-1l3,1l2.2-2.3l-1-2.9c0.4-0.8,0.8-1.6,1-2.5l2.8-1.4v-3.2l-2.8-1.4C236.9,63.5,236.6,62.7,236.1,61.9
		 M226.3,72.1c-2.7,0-4.8-2.1-4.8-4.7c0-2.6,2.2-4.7,4.8-4.7c2.7,0,4.8,2.1,4.8,4.7C231.1,69.9,229,72.1,226.3,72.1 M268.3,74.4
		h-17.9c-1.8,0-3.1,1.4-3.1,3c0,1.7,1.4,3,3.1,3h17.9c1.8,0,3.1-1.3,3.1-3C271.5,75.7,270.1,74.4,268.3,74.4 M250.4,78.7
		c-0.8,0-1.3-0.6-1.3-1.3c0-0.7,0.6-1.3,1.3-1.3s1.3,0.6,1.3,1.3C251.7,78.2,251.1,78.7,250.4,78.7 M254.9,78.7
		c-0.8,0-1.3-0.6-1.3-1.3c0-0.7,0.6-1.3,1.3-1.3c0.8,0,1.3,0.6,1.3,1.3C256.2,78.2,255.6,78.7,254.9,78.7 M259.3,78.7
		c-0.8,0-1.3-0.6-1.3-1.3c0-0.7,0.6-1.3,1.3-1.3c0.8,0,1.3,0.6,1.3,1.3C260.7,78.2,260.1,78.7,259.3,78.7 M263.8,78.7
		c-0.8,0-1.3-0.6-1.3-1.3c0-0.7,0.6-1.3,1.3-1.3c0.8,0,1.3,0.6,1.3,1.3C265.2,78.2,264.6,78.7,263.8,78.7 M268.3,78.7
		c-0.8,0-1.3-0.6-1.3-1.3c0-0.7,0.6-1.3,1.3-1.3c0.8,0,1.3,0.6,1.3,1.3C269.7,78.2,269.1,78.7,268.3,78.7 M277.6,59.9l-10.9-10.5
		c-0.4-0.3-0.9-0.3-1.3,0l-17,16.5c0,0-0.1,0.1-0.1,0.1l0,0c0,0,0,0,0,0.1c0,0,0,0,0,0.1c0,0,0,0,0,0.1v0.2v5.2
		c0,0.5,0.4,0.9,0.9,0.9h20.4h0.3v0c0.9-0.1,1.7-1,1.5-2l-1.3-9.6c-0.1-0.9-0.9-1.5-1.8-1.5h-6.5c-1,0-1.8,0.8-1.8,1.7v4.4h-8.6
		l14.9-14.4l10,9.8l-2,9.7c3.1,0.6,6.2-1.4,6.9-4.4C281.5,63.6,280.1,61,277.6,59.9 M261.6,61.3h6.5l0.6,4.4h-7.1V61.3z"/>
</g>
<g id="retail">
	<path class="st0" d="M14.5,79.8c0-36.2,29.8-65.5,66.5-65.5c36.8,0,66.6,29.3,66.6,65.5c0,36.2-29.8,65.5-66.6,65.5
		C44.3,145.3,14.5,116,14.5,79.8"/>
	<path id="icon-ring_1_" class="st1" d="M0.6,76.8C2.2,35,36.5,1.6,79,0.5 M161.6,77.8c-1.1-41.9-35.1-75.7-77.5-77.2 M83.1,159.1
		c42.5-1,76.9-34.5,78.5-76.2 M0.5,81.8c1.1,41.9,35.1,75.7,77.5,77.2 M0.5,79.8c0,0.3,0,0.7,0,1 M80,159.1c0.3,0,0.7,0,1,0
		s0.7,0,1,0 M161.6,80.8c0-0.3,0-0.7,0-1c0-0.3,0-0.7,0-1 M82.1,0.5c-0.3,0-0.7,0-1,0s-0.7,0-1,0 M0.5,78.8c0,0.3,0,0.7,0,1"/>
	<path class="st2" d="M63.4,97l1.5,2.7h-2.2l-1.3-2.4h-1v2.4h-2v-8.5H62c1.8,0,3,1.3,3,3.1C65,95.5,64.4,96.5,63.4,97z M60.3,95.7
		h1.3c0.8,0,1.4-0.6,1.4-1.5c0-0.8-0.6-1.5-1.4-1.5h-1.3V95.7z M66.1,91.2h5.2v1.6h-3.2v1.9h3.2v1.5h-3.2v1.9h3.2v1.6h-5.2V91.2z
		 M74.3,92.9H72v-1.7h6.6v1.7h-2.3v6.8h-2V92.9z M83.4,98.7h-3l-0.3,1H78l2.9-8.5h2l2.9,8.5h-2.1L83.4,98.7z M82.9,97.1l-1.1-3.8
		l-1.1,3.8H82.9z M86.6,91.2h2v8.5h-2V91.2z M90.1,91.2h2v6.8h3.2v1.7h-5.1V91.2z M105.8,96.9h-0.5c0,1.9-1.3,3-3.3,3
		c-1.9,0-3.3-1-3.3-2.6c0-1.1,0.8-1.9,1.6-2.1c-0.8-0.2-1.5-0.9-1.5-1.9c0-1.5,1.3-2.4,3.1-2.4c2.1,0,3.1,1.1,3.1,2.7h-2
		c0-0.7-0.3-1.3-1.1-1.3c-0.6,0-1.1,0.4-1.1,1c0,0.6,0.3,1.1,1.1,1.1h0.3V96h-0.2c-0.9,0-1.3,0.5-1.3,1.2c0,0.6,0.4,1.2,1.2,1.2
		c0.7,0,1.3-0.4,1.3-1.5h-0.6v-1.5h3.1V96.9z M42.1,106.4h3.2c2.7,0,4.3,2,4.3,4.3s-1.6,4.3-4.3,4.3h-3.2V106.4z M45.1,113.2
		c1.7,0,2.5-1.3,2.5-2.6c0-1.3-0.8-2.6-2.5-2.6H44v5.2H45.1z M50.6,106.4h2v8.5h-2V106.4z M53.6,112.1h2c0,0.9,0.5,1.5,1.4,1.5
		c0.7,0,1.1-0.3,1.1-0.9c0-0.5-0.3-0.8-1-1.1l-1.5-0.6c-1.1-0.4-1.7-1.2-1.7-2.3c0-1.5,1.2-2.5,3-2.5c1.9,0,3.1,1.1,3.1,2.7h-2
		c0-0.8-0.4-1.2-1.2-1.2c-0.6,0-1,0.3-1,0.8c0,0.5,0.3,0.8,1.2,1.1l1.4,0.6c1.2,0.5,1.7,1.3,1.7,2.4c0,1.6-1.2,2.6-3.1,2.6
		C54.8,115.1,53.6,114,53.6,112.1z M62.2,108.1h-2.3v-1.7h6.6v1.7h-2.3v6.8h-2V108.1z M72.3,112.2l1.5,2.7h-2.2l-1.3-2.4h-1v2.4h-2
		v-8.5h3.6c1.8,0,3,1.3,3,3.1C73.9,110.7,73.3,111.7,72.3,112.2z M69.2,110.9h1.3c0.8,0,1.4-0.6,1.4-1.5c0-0.8-0.6-1.5-1.4-1.5h-1.3
		V110.9z M75,106.4h2v8.5h-2V106.4z M84.9,112.5c0,1.5-1,2.4-2.7,2.4h-3.6v-8.5H82c1.7,0,2.7,0.8,2.7,2.2c0,1.1-0.6,1.8-1.6,1.9
		C84.1,110.6,84.9,111.3,84.9,112.5z M80.5,107.8v2.1h1.1c0.8,0,1.2-0.4,1.2-1s-0.4-1-1.2-1H80.5z M82.9,112.3c0-0.6-0.5-1-1.2-1
		h-1.2v2.2h1.2C82.5,113.4,82.9,113,82.9,112.3z M85.8,112v-5.6h2v5.5c0,1,0.6,1.5,1.5,1.5c0.9,0,1.5-0.5,1.5-1.5v-5.5h2v5.6
		c0,2-1.3,3.1-3.4,3.1C87.1,115.1,85.8,114,85.8,112z M95.6,108.1h-2.3v-1.7h6.6v1.7h-2.3v6.8h-2V108.1z M100.6,106.4h2v8.5h-2
		V106.4z M103.6,110.6c0-2.4,1.7-4.5,4.5-4.5s4.5,2.1,4.5,4.5s-1.7,4.5-4.5,4.5S103.6,113,103.6,110.6z M110.7,110.6
		c0-1.5-0.9-2.7-2.5-2.7c-1.6,0-2.5,1.3-2.5,2.7c0,1.5,0.9,2.7,2.5,2.7C109.8,113.4,110.7,112.1,110.7,110.6z M113.8,106.4h2l3,5.5
		v-5.5h1.9v8.5h-2l-3-5.5v5.5h-1.9V106.4z"/>
	<path class="st2" d="M96,48.7L96,48.7L85.8,38c-0.8-0.8-1.8-1.3-3-1.3c-1.1,0-2.1,0.4-2.9,1.3L69.8,48.6l-0.1,0.1H58.6l4.4,26.9
		c0.2,1.2,1.2,2,2.3,2h35.1c1.1,0,2.1-0.9,2.3-2l4.5-26.9H96z M102.1,57.9h-7.8l0.5-5.5h8.2L102.1,57.9z M74,60.4h7.6v5.5h-7.2
		L74,60.4z M72.1,65.9H65l-0.9-5.5h7.6L72.1,65.9z M84,52.3h8.3l-0.5,5.5H84V52.3z M81.7,57.9h-7.8l-0.5-5.5h8.3V57.9z M81.7,68.4
		v5.5h-6.6l-0.5-5.5H81.7z M84,68.4h7l-0.5,5.5H84V68.4z M84,65.9v-5.5h7.6l-0.5,5.5H84z M94.1,60.4h7.6l-0.9,5.5h-7.1L94.1,60.4z
		 M82.4,40.6c0.2-0.2,0.4-0.2,0.4-0.2c0.1,0,0.3,0,0.4,0.2l7.8,8H74.7L82.4,40.6z M71,52.3l0.5,5.5h-7.8l-0.9-5.5H71z M65.4,68.4
		h6.9l0.5,5.5h-6.4L65.4,68.4z M93,73.9l0.5-5.5h6.9l-0.9,5.5H93z"/>
</g>
</svg>
